Coordinates
version=1
nRows=8
nColumns=40
inDegrees=yes

Units are S.I. units (second, meters, Newtons, ...)
If the header above contains a line with 'inDegrees', this indicates whether rotational values are in degrees (yes) or radians (no).

endheader
time	pelvis_tilt	pelvis_list	pelvis_rotation	pelvis_tx	pelvis_ty	pelvis_tz	hip_flexion_r	hip_adduction_r	hip_rotation_r	knee_angle_r	knee_angle_r_beta	ankle_angle_r	subtalar_angle_r	mtp_angle_r	hip_flexion_l	hip_adduction_l	hip_rotation_l	knee_angle_l	knee_angle_l_beta	ankle_angle_l	subtalar_angle_l	mtp_angle_l	lumbar_extension	lumbar_bending	lumbar_rotation	arm_flex_r	arm_add_r	arm_rot_r	elbow_flex_r	pro_sup_r	wrist_flex_r	wrist_dev_r	arm_flex_l	arm_add_l	arm_rot_l	elbow_flex_l	pro_sup_l	wrist_flex_l	wrist_dev_l
      2.32500000	    -13.79338964	      2.97519871	      1.30115235	     -0.38367604	      0.82881166	     -0.80954263	     51.49647864	     -2.78494106	     -9.33603338	     65.49264808	      1.14306234	     16.10711598	      0.00000000	      0.00000000	     37.80295333	     -8.61114890	      4.89015036	     99.56434030	      1.73772556	    -23.57036409	      0.00000000	      0.00000000	    -10.63111985	      1.74116660	     -1.65144700	     88.61533615	    -19.62359263	     42.52312630	     67.95185071	     84.34419784	      0.00000000	      0.00000000	     88.38261379	    -11.80021199	     39.45993372	     62.67308033	     79.59292970	      0.00000000	      0.00000000
      2.33000000	    -13.83762201	      3.04980735	      1.22626568	     -0.38424565	      0.82764959	     -0.80959948	     51.78436689	     -2.79952381	     -9.20195512	     65.83180995	      1.14898184	     16.06901178	      0.00000000	      0.00000000	     37.89509449	     -8.67219838	      4.83329818	     99.70508469	      1.74018201	    -24.06277340	      0.00000000	      0.00000000	    -10.69039445	      1.66058840	     -1.59125877	     88.65748173	    -19.58620517	     42.17986618	     67.91170033	     86.71937120	      0.00000000	      0.00000000	     88.47820649	    -11.76823467	     39.19341408	     62.62783610	     83.96990006	      0.00000000	      0.00000000
      2.33500000	    -13.83416670	      2.95321252	      1.21901400	     -0.38463634	      0.82668531	     -0.80978827	     51.92006825	     -2.75114528	     -9.26651496	     66.05366271	      1.15285390	     16.08641475	      0.00000000	      0.00000000	     37.95205639	     -8.77959980	      4.98168950	     99.91190141	      1.74379164	    -24.06534580	      0.00000000	      0.00000000	    -10.75456096	      1.81282725	     -1.58063764	     88.71244316	    -19.51546182	     42.15086941	     67.83273574	     86.89579529	      0.00000000	      0.00000000	     88.49180758	    -11.78243158	     39.18321894	     62.59046348	     82.97734625	      0.00000000	      0.00000000
      2.34000000	    -13.85343386	      2.96271347	      1.16564549	     -0.38507609	      0.82563375	     -0.80994132	     52.09896865	     -2.72835194	     -9.17875448	     66.28859335	      1.15695421	     16.32206710	      0.00000000	      0.00000000	     38.01032533	     -8.86854264	      4.98224725	    100.08934981	      1.74688870	    -24.16518660	      0.00000000	      0.00000000	    -10.79791418	      1.82980841	     -1.52872351	     88.80280091	    -19.50702977	     42.49503122	     67.80219751	     84.66564202	      0.00000000	      0.00000000	     88.58310414	    -11.70865734	     39.30562831	     62.50898136	     80.41619340	      0.00000000	      0.00000000
      2.34500000	    -13.85136067	      2.98132332	      1.00077083	     -0.38525618	      0.82466619	     -0.80987471	     52.24586919	     -2.59758171	     -9.00901920	     66.50935332	      1.16080720	     16.32704655	      0.00000000	      0.00000000	     37.96864498	     -8.96444614	      4.92508814	    100.20308476	      1.74887375	    -24.42021762	      0.00000000	      0.00000000	    -10.87576670	      1.80082251	     -1.34011623	     88.77107551	    -19.47650082	     41.98277167	     67.77476121	     87.01408099	      0.00000000	      0.00000000	     88.61123362	    -11.73800437	     39.30727873	     62.55027289	     80.92118570	      0.00000000	      0.00000000
      2.35000000	    -13.88502427	      2.93516120	      1.07450054	     -0.38592932	      0.82365318	     -0.81016558	     52.44219918	     -2.65403923	     -9.07981052	     66.71371935	      1.16437406	     16.25125791	      0.00000000	      0.00000000	     38.11504725	     -8.93847891	      5.15724105	    100.36049161	      1.75162102	    -24.74933309	      0.00000000	      0.00000000	    -10.95430470	      1.90522502	     -1.38230762	     88.85110682	    -19.47682812	     42.06381383	     67.78713314	     86.38438012	      0.00000000	      0.00000000	     88.71262841	    -11.74101022	     39.19243591	     62.70658346	     80.37948001	      0.00000000	      0.00000000
      2.35500000	    -13.93929121	      2.97131478	      1.00104935	     -0.38639797	      0.82257915	     -0.81039752	     52.67277031	     -2.62213396	     -8.94354389	     66.97152356	      1.16887359	     16.54676382	      0.00000000	      0.00000000	     38.19875287	     -9.03261692	      5.04728331	    100.55632785	      1.75503900	    -24.59537712	      0.00000000	      0.00000000	    -10.96571293	      1.89246208	     -1.39291574	     88.93287756	    -19.34048243	     41.94516453	     67.63744202	     87.05725726	      0.00000000	      0.00000000	     88.71697601	    -11.73817091	     39.08600155	     62.50768881	     81.44189019	      0.00000000	      0.00000000
      2.36000000	    -13.96942015	      3.03534792	      0.94815139	     -0.38688870	      0.82151043	     -0.81060700	     52.88702882	     -2.65448942	     -8.85421364	     67.22760861	      1.17334312	     16.58765936	      0.00000000	      0.00000000	     38.24984925	     -9.02127897	      5.04596704	    100.72209667	      1.75793222	    -24.75049110	      0.00000000	      0.00000000	    -10.99912934	      1.83875735	     -1.30120112	     88.97892081	    -19.36591328	     41.92079166	     67.56959153	     86.74961088	      0.00000000	      0.00000000	     88.78941048	    -11.58617189	     38.92781141	     62.27154976	     83.97223444	      0.00000000	      0.00000000
